<svg width="106" height="60" viewBox="0 0 106 60" fill="none" xmlns="http://www.w3.org/2000/svg">
<path d="M22.5 46.8969V41.7055H22.8511V42.1764V43.8006V44.1868V44.3006V44.6868V46.3897V46.8897H23.3511H24.6305C25.019 46.9073 25.4064 46.8053 25.7312 46.5942L25.7511 46.5812L25.7697 46.5664C25.9265 46.4418 26.0537 46.2826 26.1376 46.099C26.217 45.925 26.2548 45.7354 26.2467 45.5441C26.2535 45.3517 26.2144 45.1613 26.1336 44.9869L25.7311 45.1732L26.1336 44.9869C26.1042 44.9233 26.0696 44.8626 26.0305 44.8053C26.1673 44.8712 26.2873 44.9606 26.3831 45.0673C26.5467 45.2533 26.628 45.4783 26.6237 45.7026L26.6233 45.7208L26.6243 45.739C26.6323 45.8882 26.6037 46.0385 26.5389 46.1794C26.4762 46.3155 26.3803 46.4412 26.2549 46.546C25.8795 46.8002 25.4114 46.9274 24.9346 46.8979L24.9192 46.8969H24.9037H22.5ZM25.6899 44.4687C25.5195 44.3602 25.332 44.2818 25.1364 44.2352C25.3082 44.1857 25.4722 44.1097 25.6212 44.0082L25.6408 43.9949L25.659 43.9797C25.6668 43.9732 25.6746 43.9667 25.6822 43.96L25.6899 44.4687ZM26.2649 43.3927C26.1805 43.4856 26.0753 43.5641 25.9553 43.6227C25.9739 43.5889 25.991 43.5541 26.0064 43.5184C26.0787 43.3508 26.1116 43.1693 26.1017 42.9868C26.1092 42.8077 26.0763 42.6299 26.0061 42.4651C25.9306 42.2879 25.8147 42.132 25.6702 42.007L25.6482 41.9879L25.6241 41.9716C25.4232 41.835 25.1954 41.7439 24.958 41.7011C25.3794 41.6918 25.7904 41.8065 26.1296 42.0245C26.2463 42.1171 26.3353 42.2295 26.3934 42.3515C26.4536 42.478 26.48 42.6132 26.4724 42.7471L26.4709 42.7734L26.4722 42.7997C26.4824 43.0072 26.4126 43.2173 26.2649 43.3927Z" fill="#AFB1B8" stroke="black"/>
<path d="M31.9528 45.2042L33.1055 46.8969H32.8414L31.407 44.7036L31.3611 44.6333H31.5072C31.5261 44.6333 31.5449 44.6332 31.5638 44.6329L31.9528 45.2042ZM29.894 44.1369L29.8964 44.4772H29.894V44.9772V46.8969H29.533V41.7055H31.6096H31.6256L31.6415 41.7045C32.1667 41.6709 32.6807 41.8208 33.0809 42.115C33.3423 42.367 33.4926 42.6871 33.5173 43.0176C33.5421 43.3493 33.44 43.6836 33.2192 43.9629C33.0543 44.1314 32.8459 44.2638 32.6109 44.3476C32.6384 44.3288 32.6651 44.3088 32.6912 44.2877C33.0273 44.0159 33.1635 43.626 33.1666 43.2105C33.1765 43.0123 33.1424 42.8151 33.0674 42.6315L32.6045 42.8205L33.0674 42.6315C32.9905 42.4431 32.873 42.2748 32.7251 42.1358L32.7062 42.118L32.6855 42.1022C32.3454 41.8432 31.9165 41.72 31.4889 41.749H30.3807H29.8772L29.8808 42.2525L29.894 44.1369Z" fill="#AFB1B8" stroke="black"/>
<path d="M40.4781 45.9745L40.3562 45.6506H40.3475L40.1143 45.0357L39.1233 42.4224L38.8778 41.7749H39.0886L41.1642 46.8968H40.8253L40.4781 45.9745ZM36.9641 45.6506H36.9546L36.8314 45.9713L36.4756 46.8968H36.1353L38.2192 41.7749H38.4338L38.1883 42.4224L37.1973 45.0357L36.9641 45.6506Z" fill="#AFB1B8" stroke="black"/>
<path d="M44.4421 43.1866V46.8969H44.0943V41.7054H44.4421V43.1866ZM45.348 42.8946L44.4924 41.7054H44.685L47.5646 45.7309L48.3988 46.8969H48.2275L45.348 42.8946ZM48.4713 45.44V41.7054H48.8224V46.8969H48.4713V45.44Z" fill="#AFB1B8" stroke="black"/>
<path d="M52.006 46.897V41.7055H53.9109V41.7056L53.9228 41.7053C54.5059 41.6914 55.0826 41.8074 55.6028 42.0415C56.0299 42.239 56.3749 42.546 56.5993 42.9162C56.8345 43.3451 56.9556 43.8156 56.9556 44.2906C56.9556 44.7659 56.8344 45.2366 56.5991 45.6656C56.3735 46.0397 56.0274 46.351 55.5986 46.5538C55.0816 46.7925 54.5057 46.9112 53.9229 46.8971L53.9229 46.897H53.9109H52.006ZM55.7988 46.1572L55.8268 46.1348L55.8514 46.1086C56.32 45.6088 56.5842 44.9637 56.5842 44.2891C56.5842 43.6145 56.32 42.9695 55.8514 42.4696L55.8268 42.4434L55.7988 42.421C55.2364 41.9715 54.5121 41.747 53.7816 41.7853H52.8571H52.3571V42.2853V46.293V46.793H52.8571H53.7816C54.5121 46.8312 55.2364 46.6067 55.7988 46.1572Z" fill="#AFB1B8" stroke="black"/>
<path d="M57.425 21.4968L57.4245 21.5074V21.518V35.5555C57.4019 35.5469 57.3787 35.5381 57.3551 35.529C56.8849 35.3492 56.2121 35.0821 55.4054 34.7344C53.7905 34.0383 51.6454 33.0218 49.5153 31.738C47.3813 30.4519 45.285 28.9109 43.7499 27.1724C42.2137 25.4328 41.2786 23.5417 41.362 21.5388L41.3624 21.5283L41.3624 21.5177L41.3562 7.48325C41.3789 7.4919 41.4022 7.50077 41.426 7.50987C41.8966 7.68961 42.5698 7.95656 43.3771 8.30416C44.9931 8.99997 47.1397 10.0161 49.271 11.2995C51.4062 12.5853 53.5035 14.1259 55.0389 15.864C56.5753 17.6033 57.5099 19.4941 57.425 21.4968Z" fill="#AFB1B8" stroke="black"/>
<path d="M84.0399 28.6288C80.9983 28.9705 78.0591 29.8343 75.3745 31.1701C77.668 28.5584 80.6418 26.495 84.0399 25.179V28.6288Z" fill="#AFB1B8" stroke="black"/>
<path d="M60.7303 51.4857V31.1939V31.1834L60.7298 31.1728C60.606 28.2453 61.9738 25.501 64.1818 23.0016C66.3888 20.5034 69.396 18.2961 72.4461 16.4593C75.4923 14.6248 78.5585 13.1732 80.8655 12.1797C82.0183 11.6833 82.9799 11.3019 83.6524 11.045C83.7949 10.9905 83.9244 10.9417 84.04 10.8985V23.1364C78.4273 25.1102 73.8049 28.9354 71.0923 33.8792C66.2231 37.7007 63.1854 43.1378 62.6596 49.0155C62.591 49.6088 62.5799 50.1967 62.5781 50.7609C61.853 51.0571 61.2553 51.2882 60.8251 51.4501C60.7925 51.4624 60.7609 51.4743 60.7303 51.4857Z" fill="#AFB1B8" stroke="black"/>
<path d="M68.9433 39.7531C66.8595 42.5669 65.5977 45.8316 65.2936 49.2351L65.2935 49.2359C65.282 49.3617 65.2723 49.4878 65.264 49.6146C66.3917 49.1042 67.6388 48.5061 68.9391 47.8285C68.5518 45.8973 68.4449 43.9267 68.6217 41.9683L68.9433 39.7531ZM68.9433 39.7531C68.7957 40.4855 68.6883 41.2248 68.6217 41.9681L68.9433 39.7531Z" fill="#AFB1B8" stroke="black"/>
<path d="M70.6055 42.1335L70.6056 42.1318C70.7751 40.173 71.2565 38.2468 72.035 36.414C75.3337 33.5584 79.5283 31.7171 84.0301 31.1493V31.1939V31.2045L84.0306 31.2151C84.1692 34.4873 82.4433 37.5311 79.7703 40.2541C77.2611 42.8102 73.9686 45.0297 70.7802 46.822C70.5237 45.2712 70.4649 43.6979 70.6055 42.1335Z" fill="#AFB1B8" stroke="black"/>
</svg>
