<!-- Generated by IcoMoon.io -->
<svg version="1.1" xmlns="http://www.w3.org/2000/svg" width="57" height="32" viewBox="0 0 57 32">
<title>client5</title>
<path fill="#afb1b8" stroke-linejoin="miter" stroke-linecap="butt" stroke-miterlimit="4" stroke-width="0.5333" stroke="#000" d="M12 25.012v-2.769h0.187v2.765h0.949c0.207 0.009 0.414-0.045 0.587-0.158l0.011-0.007 0.010-0.008c0.084-0.066 0.151-0.151 0.196-0.249 0.042-0.093 0.063-0.194 0.058-0.296 0.004-0.103-0.017-0.204-0.060-0.297v0c-0.016-0.034-0.034-0.066-0.055-0.097 0.073 0.035 0.137 0.083 0.188 0.14 0.087 0.099 0.131 0.219 0.128 0.339l-0 0.010 0.001 0.010c0.004 0.080-0.011 0.16-0.046 0.235-0.033 0.073-0.085 0.14-0.151 0.196-0.2 0.136-0.45 0.203-0.704 0.188l-0.008-0.001h-1.29zM13.701 23.717c-0.091-0.058-0.191-0.1-0.295-0.125 0.092-0.026 0.179-0.067 0.259-0.121l0.010-0.007 0.010-0.008c0.004-0.003 0.008-0.007 0.012-0.011l0.004 0.271zM14.008 23.143c-0.045 0.050-0.101 0.091-0.165 0.123 0.010-0.018 0.019-0.037 0.027-0.056 0.039-0.089 0.056-0.186 0.051-0.284 0.004-0.096-0.014-0.19-0.051-0.278-0.040-0.095-0.102-0.178-0.179-0.244l-0.012-0.010-0.013-0.009c-0.107-0.073-0.229-0.121-0.355-0.144 0.225-0.005 0.444 0.056 0.625 0.172 0.062 0.049 0.11 0.109 0.141 0.174 0.032 0.067 0.046 0.14 0.042 0.211l-0.001 0.014 0.001 0.014c0.005 0.111-0.032 0.223-0.111 0.316z"></path>
<path fill="#afb1b8" stroke-linejoin="miter" stroke-linecap="butt" stroke-miterlimit="4" stroke-width="0.5333" stroke="#000" d="M17.041 24.109l0.615 0.903h-0.141l-0.79-1.207h0.078c0.010 0 0.020-0 0.030-0l0.207 0.305zM15.943 23.54l0.001 0.181h-0.001v1.291h-0.193v-2.769l1.125-0.001c0.28-0.018 0.554 0.062 0.768 0.219 0.139 0.134 0.22 0.305 0.233 0.481s-0.041 0.355-0.159 0.504c-0.088 0.090-0.199 0.16-0.324 0.205 0.015-0.010 0.029-0.021 0.043-0.032 0.179-0.145 0.252-0.353 0.254-0.575 0.005-0.106-0.013-0.211-0.053-0.309v0c-0.041-0.1-0.104-0.19-0.183-0.264l-0.010-0.009-0.011-0.008c-0.181-0.138-0.41-0.204-0.638-0.188h-0.86l0.002 0.269 0.007 1.005z"></path>
<path fill="#afb1b8" stroke-linejoin="miter" stroke-linecap="butt" stroke-miterlimit="4" stroke-width="0.5333" stroke="#000" d="M21.588 24.52l-0.065-0.173h-0.005l-0.784-2.067h0.112l1.107 2.732h-0.181l-0.185-0.492zM19.714 24.347h-0.005l-0.255 0.665h-0.181l1.111-2.732h0.114l-0.784 2.067z"></path>
<path fill="#afb1b8" stroke-linejoin="miter" stroke-linecap="butt" stroke-miterlimit="4" stroke-width="0.5333" stroke="#000" d="M23.702 23.033v1.979h-0.186v-2.769h0.186v0.79zM24.186 22.877l-0.456-0.634h0.103l1.981 2.769h-0.091l-1.536-2.135zM25.851 24.235v-1.992h0.187v2.769h-0.187v-0.777z"></path>
<path fill="#afb1b8" stroke-linejoin="miter" stroke-linecap="butt" stroke-miterlimit="4" stroke-width="0.5333" stroke="#000" d="M27.737 25.012v-2.769l1.022-0c0.311-0.007 0.619 0.054 0.896 0.179 0.228 0.105 0.412 0.269 0.531 0.466 0.125 0.229 0.19 0.48 0.19 0.733s-0.065 0.505-0.19 0.733c-0.12 0.2-0.305 0.366-0.534 0.474-0.276 0.127-0.583 0.191-0.894 0.183v-0h-1.022zM29.759 24.617l0.015-0.012 0.013-0.014c0.25-0.267 0.391-0.611 0.391-0.97s-0.141-0.704-0.391-0.97l-0.013-0.014-0.015-0.012c-0.3-0.24-0.686-0.359-1.076-0.339h-0.76v2.671h0.76c0.39 0.020 0.776-0.099 1.076-0.339z"></path>
<path fill="#afb1b8" stroke-linejoin="miter" stroke-linecap="butt" stroke-miterlimit="4" stroke-width="0.5333" stroke="#000" d="M30.627 11.465l-0 0.006v7.492c-0.012-0.005-0.024-0.009-0.037-0.014-0.251-0.096-0.61-0.238-1.040-0.424-0.861-0.371-2.005-0.913-3.141-1.598-1.138-0.686-2.256-1.508-3.075-2.435s-1.318-1.936-1.274-3.005l0-0.006v-0.006l-0.003-7.485c0.012 0.005 0.025 0.009 0.037 0.014 0.251 0.096 0.61 0.238 1.041 0.424 0.862 0.371 2.007 0.913 3.143 1.598 1.139 0.686 2.257 1.507 3.076 2.434s1.318 1.936 1.273 3.004z"></path>
<path fill="#afb1b8" stroke-linejoin="miter" stroke-linecap="butt" stroke-miterlimit="4" stroke-width="0.5333" stroke="#000" d="M44.821 15.269c-1.622 0.182-3.19 0.643-4.622 1.355 1.223-1.393 2.809-2.493 4.622-3.195v1.84z"></path>
<path fill="#afb1b8" stroke-linejoin="miter" stroke-linecap="butt" stroke-miterlimit="4" stroke-width="0.5333" stroke="#000" d="M32.389 27.459v-10.828l-0-0.006c-0.066-1.561 0.663-3.025 1.841-4.358s2.781-2.51 4.408-3.489c1.625-0.978 3.26-1.753 4.49-2.282 0.615-0.265 1.128-0.468 1.486-0.605 0.076-0.029 0.145-0.055 0.207-0.078v6.527c-2.993 1.053-5.459 3.093-6.905 5.73-2.597 2.038-4.217 4.938-4.497 8.073-0.037 0.316-0.042 0.63-0.043 0.931-0.387 0.158-0.706 0.281-0.935 0.368-0.017 0.007-0.034 0.013-0.051 0.019z"></path>
<path fill="#afb1b8" stroke-linejoin="miter" stroke-linecap="butt" stroke-miterlimit="4" stroke-width="0.5333" stroke="#000" d="M36.77 21.202c-1.111 1.501-1.784 3.242-1.947 5.057l-0 0c-0.006 0.067-0.011 0.134-0.016 0.202 0.601-0.272 1.267-0.591 1.96-0.953-0.207-1.030-0.264-2.081-0.169-3.125l0.172-1.181zM36.77 21.202c-0.079 0.391-0.136 0.785-0.172 1.181l0.172-1.181z"></path>
<path fill="#afb1b8" stroke-linejoin="miter" stroke-linecap="butt" stroke-miterlimit="4" stroke-width="0.5333" stroke="#000" d="M37.656 22.471l0-0.001c0.090-1.045 0.347-2.072 0.762-3.050 1.759-1.523 3.996-2.505 6.397-2.808v0.029l0 0.006c0.074 1.745-0.847 3.369-2.272 4.821-1.338 1.363-3.094 2.547-4.795 3.503-0.137-0.827-0.168-1.666-0.093-2.501z"></path>
</svg>
